<?xml version="1.0" encoding="UTF-8" standalone="no"?>
<svg width="100%" height="220px" viewBox="0 0 1440 220" version="1.1" xmlns="http://www.w3.org/2000/svg" xmlns:xlink="http://www.w3.org/1999/xlink">
    <!-- Generator: Sketch 3.6.1 (26313) - http://www.bohemiancoding.com/sketch -->
    <title>seperator</title>
    <desc>Created with Sketch.</desc>
    <defs>
        <filter x="-50%" y="-50%" width="200%" height="200%" filterUnits="objectBoundingBox" id="filter-1">
            <feMorphology radius="17" in="SourceAlpha" operator="dilate" result="shadowSpreadOuter1"></feMorphology>
            <feOffset dx="0" dy="1" in="shadowSpreadOuter1" result="shadowOffsetOuter1"></feOffset>
            <feGaussianBlur stdDeviation="22.5" in="shadowOffsetOuter1" result="shadowBlurOuter1"></feGaussianBlur>
            <feColorMatrix values="0 0 0 0 0   0 0 0 0 0   0 0 0 0 0  0 0 0 0.064990942 0" in="shadowBlurOuter1" type="matrix" result="shadowMatrixOuter1"></feColorMatrix>
            <feMerge>
                <feMergeNode in="shadowMatrixOuter1"></feMergeNode>
                <feMergeNode in="SourceGraphic"></feMergeNode>
            </feMerge>
        </filter>
    </defs>
    <g id="jonasdrotleff.me" stroke="none" stroke-width="1" fill="none" fill-rule="evenodd" filter="url(#filter-1)">
        <g id="Desktop-HD" transform="translate(0.000000, -965.000000)" fill="#FFFFFF">
            <g id="about" transform="translate(0.000000, 1024.000000)">
                <path d="M0,98 L0,17.6890595 L55.0176888,37.1508227 L93.2337112,17.6890604 L146.104294,17.6890604 L186.917374,58.8511126 L233.437515,17.6890604 L264.522797,17.6890604 L282.57962,0.233907337 L357.640533,17.6890604 L422.782227,0.233907337 L480.124908,17.6890604 L523.906311,17.6890604 L610.680786,44.2577834 L685.297363,44.2577844 L766.701721,30.563723 L808.261841,0.233907337 L872.737305,17.6890604 L933.115662,58.8511136 L1020.12018,17.6890604 L1089.17957,37.1508227 L1125.67871,7.03415673 L1184.36792,17.6890604 L1259.00073,0.233907337 L1291.07202,30.563723 L1341.30359,37.1508227 L1387.86023,17.6890604 L1440,17.6890595 L1440,98 L0,98 Z" id="seperator"></path>
            </g>
        </g>
    </g>
</svg>
